<?xml version="1.0" encoding="UTF-8"?> <svg xmlns="http://www.w3.org/2000/svg" id="Layer_1" data-name="Layer 1" viewBox="0 0 170.0787 43.9846"><title>Bondora-logo-RGB</title><path d="M9.1053,18.5776l6.79,3.4148,6.79-3.4148c5.0079-2.8914,5.0079-7.6226,0-10.514L9.1053,1.234C4.0974-1.6574,0,.7083,0,6.491V20.15a10.4,10.4,0,0,0,.158,1.8422C.95,17.5825,4.6692,16.0164,9.1053,18.5776Z" transform="translate(0 0)" style="fill:#99df2b"></path><path d="M22.6859,25.4071l-6.79-3.4148-6.79,3.4148C4.6692,27.9683.95,26.4021.158,21.9923A10.4,10.4,0,0,0,0,23.8345V37.4937c0,5.7827,4.0974,8.1483,9.1053,5.2569l13.5806-6.83C27.6937,33.03,27.6937,28.2984,22.6859,25.4071Z" transform="translate(0 0)" style="fill:#82bfe9"></path><path d="M9.1053,25.4071l6.79-3.4148-6.79-3.4148C4.6692,16.0164.95,17.5825.158,21.9923.95,26.4021,4.6692,27.9683,9.1053,25.4071Z" transform="translate(0 0)" style="fill:#4ea727"></path><path d="M49.42,9.3023c5.0472,0,7.9676,2.92,7.9676,6.85a5.7221,5.7221,0,0,1-3.7491,5.48A5.9819,5.9819,0,0,1,58.18,27.6166c0,4.1818-3.1719,7.2459-8.0028,7.2459H41.3685a1.502,1.502,0,0,1-1.502-1.502V10.8043a1.502,1.502,0,0,1,1.502-1.502ZM48.5191,19.54c1.9824,0,3.28-1.0444,3.28-2.7752,0-1.6589-1.1177-2.74-3.3531-2.74H45.4183V19.54Zm.4686,10.6709c2.1987,0,3.5328-1.1529,3.5328-2.9922,0-1.766-1.2981-2.9922-3.5328-2.9922H45.4183v5.9845Z" transform="translate(0 0)"></path><path d="M78.46,25.8858a9.5173,9.5173,0,1,1-19.0345,0,9.5173,9.5173,0,0,1,19.0345,0Zm-5.4792,0c0-3.0289-1.9472-4.4341-4.0381-4.4341-2.055,0-4.0373,1.4052-4.0373,4.4341,0,2.9922,1.9824,4.4708,4.0373,4.4708C71.0335,30.3566,72.9807,28.9147,72.9807,25.8858Z" transform="translate(0 0)"></path><path d="M84.6028,34.8626H82.1268a1.502,1.502,0,0,1-1.502-1.502V18.4477a1.502,1.502,0,0,1,1.502-1.502h2.2957a1.5018,1.5018,0,0,1,1.5018,1.5018v.5531a5.8709,5.8709,0,0,1,5.0113-2.5243c4.5067,0,6.525,3.2093,6.525,7.1389v9.7453a1.502,1.502,0,0,1-1.502,1.502H93.4834a1.502,1.502,0,0,1-1.502-1.502V24.5525a2.7645,2.7645,0,0,0-2.6645-3.0931,3.0939,3.0939,0,0,0-3.2121,3.1283v8.7729A1.502,1.502,0,0,1,84.6028,34.8626Z" transform="translate(0 0)"></path><path d="M118.3866,31.6547c0,.6166.0156,1.1707.0369,1.6425a1.4985,1.4985,0,0,1-1.5,1.5654h-2.2946a1.4959,1.4959,0,0,1-1.5005-1.4311c-.0036-.1-.0057-.2006-.0057-.3a5.7781,5.7781,0,0,1-4.7949,2.1268c-5.0472,0-8.8682-3.8929-8.8682-9.4094,0-5.3347,3.6046-9.3361,8.6878-9.3361,3.0649,0,4.3989,1.1529,4.8309,1.8379V10.2631a1.502,1.502,0,0,1,1.502-1.502h2.4041a1.502,1.502,0,0,1,1.502,1.502Zm-9.3735-1.2981c2.1268,0,4.0381-1.5152,4.0381-4.4708,0-2.9922-1.9112-4.4341-4.0381-4.4341s-4.0373,1.4419-4.0373,4.4341C104.9757,28.8414,106.8862,30.3566,109.0131,30.3566Z" transform="translate(0 0)"></path><path d="M139.589,25.8858a9.5173,9.5173,0,1,1-19.0345,0,9.5173,9.5173,0,0,1,19.0345,0Zm-5.4792,0c0-3.0289-1.9472-4.4341-4.0381-4.4341-2.055,0-4.0373,1.4052-4.0373,4.4341,0,2.9922,1.9824,4.4708,4.0373,4.4708C132.1626,30.3566,134.11,28.9147,134.11,25.8858Z" transform="translate(0 0)"></path><path d="M153.1465,20.6734a1.5,1.5,0,0,1-1.5255,1.5q-.1035-.0019-.2053-.0019c-2.1987,0-4.1818,1.2981-4.1818,4.8683v6.32a1.502,1.502,0,0,1-1.502,1.502H143.256a1.502,1.502,0,0,1-1.502-1.502V18.4477a1.502,1.502,0,0,1,1.502-1.502h2.2957a1.5018,1.5018,0,0,1,1.5018,1.5018V19.36a5.0611,5.0611,0,0,1,4.6512-2.5947h.0162a1.4275,1.4275,0,0,1,1.4256,1.4275Z" transform="translate(0 0)"></path><path d="M159.1838,24.5158l4.2177-.6483c.9732-.1452,1.2981-.6131,1.2981-1.2262,0-1.0458-.9013-1.9464-2.6322-1.9464a2.9437,2.9437,0,0,0-2.7726,1.583,1.4783,1.4783,0,0,1-1.6224.7761l-1.8806-.3849a1.5134,1.5134,0,0,1-1.0716-2.1067c.9458-2.1127,3.2944-4.1578,7.3832-4.1578,5.8055,0,7.9324,3.2445,7.9324,6.9218v8.76c0,.42.0161.8214.04,1.1819a1.4984,1.4984,0,0,1-1.4979,1.5947h-1.9331a1.4967,1.4967,0,0,1-1.5-1.4266c-.0075-.18-.0119-.3769-.0119-.5917a5.6552,5.6552,0,0,1-5.0472,2.5229c-3.93,0-6.2008-2.5962-6.2008-5.4432C153.8843,26.7512,156.2275,24.9485,159.1838,24.5158ZM164.7,27.8323V27.04l-3.389.54c-1.1536.18-2.019.7217-2.019,1.9831,0,.9373.6131,1.8379,2.1268,1.8379C163.0407,31.4009,164.7,30.6089,164.7,27.8323Z" transform="translate(0 0)"></path></svg> 